<svg xmlns="http://www.w3.org/2000/svg" viewBox="0 0 32 32" fill="none">
  <!-- Sparkles icon with vibrant colors -->
  <defs>
    <linearGradient id="sparkleGradient" x1="0%" y1="0%" x2="100%" y2="100%">
      <stop offset="0%" style="stop-color:#3B82F6;stop-opacity:1" />
      <stop offset="50%" style="stop-color:#8B5CF6;stop-opacity:1" />
      <stop offset="100%" style="stop-color:#EC4899;stop-opacity:1" />
    </linearGradient>
  </defs>
  
  <!-- Large star -->
  <path d="M16 2l2.5 8.5L27 12.5l-8.5 2.5L16 23.5l-2.5-8.5L5 12.5l8.5-2.5L16 2z" fill="url(#sparkleGradient)" stroke="#fff" stroke-width="0.5"/>
  
  <!-- Small star top right -->
  <path d="M24 6l1 3 3 1-3 1-1 3-1-3-3-1 3-1 1-3z" fill="url(#sparkleGradient)" stroke="#fff" stroke-width="0.3"/>
  
  <!-- Small star bottom left -->
  <path d="M8 26l1 3 3 1-3 1-1 3-1-3-3-1 3-1 1-3z" fill="url(#sparkleGradient)" stroke="#fff" stroke-width="0.3"/>
  
  <!-- Tiny star top left -->
  <path d="M7 8l0.5 1.5 1.5 0.5-1.5 0.5L7 12l-0.5-1.5L5 10l1.5-0.5L7 8z" fill="url(#sparkleGradient)"/>
  
  <!-- Tiny star bottom right -->
  <path d="M25 22l0.5 1.5 1.5 0.5-1.5 0.5L25 26l-0.5-1.5L23 24l1.5-0.5L25 22z" fill="url(#sparkleGradient)"/>
</svg>